<svg width="20" height="16" viewBox="0 0 20 16" fill="none" xmlns="http://www.w3.org/2000/svg">
<path fill-rule="evenodd" clip-rule="evenodd" d="M19 8.00005C19 8.41426 18.6642 8.75005 18.25 8.75005H3.56029L9.03061 14.2194C9.32366 14.5125 9.32366 14.9876 9.03061 15.2807C8.73755 15.5737 8.26241 15.5737 7.96935 15.2807L1.21935 8.53068C1.07852 8.39 0.99939 8.19911 0.99939 8.00005C0.99939 7.80099 1.07852 7.6101 1.21935 7.46943L7.96935 0.719426C8.26241 0.42637 8.73755 0.42637 9.03061 0.719426C9.32366 1.01248 9.32366 1.48762 9.03061 1.78068L3.56029 7.25005H18.25C18.6642 7.25005 19 7.58584 19 8.00005Z" fill="#0D141C" stroke="black"/>
</svg>
